<svg xmlns="http://www.w3.org/2000/svg" viewBox="0 0 46.18 46.61"><defs><style>.cls-1{fill:#c01f46;}</style></defs><title>dispute-resolution</title><g id="Layer_2" data-name="Layer 2"><g id="Layer_1-2" data-name="Layer 1"><path class="cls-1" d="M11.26,9.85a15.32,15.32,0,0,1,.64-3.21c.59-2.12-.95-4.19-2.8-5a.79.79,0,0,0-.89.09.5.5,0,0,0,0,.24c0,.48,0,1,0,1.44s0,.73-.05,1a11.11,11.11,0,0,1-1.71,5A8.94,8.94,0,0,1,4.28,12c-.28.24-1.18,1-1.19,1l-.41.35c-1.4,3.49-1.31,8.86.21,11.6a40.8,40.8,0,0,0,6.79.88,2.39,2.39,0,0,1-.37-1.35A2.28,2.28,0,0,1,9.82,23a2.44,2.44,0,0,1-1.29-2.67A2.88,2.88,0,0,1,9,19.09a2.56,2.56,0,0,1-1-2.63,2.79,2.79,0,0,1,1.44-2.21,2.71,2.71,0,0,1-.32-1.77,2.62,2.62,0,0,1,2.11-2.63Zm2.27,1.24-.13,0-1.45.18-.07,0c-.82.25-1,.39-1.06,1.32S11,13.71,12,13.92a18.79,18.79,0,0,0,3.11.27.81.81,0,0,1,.82.81.82.82,0,0,1-.86.76c-1,0-1.84-.08-2.54-.16h-.21l-.43,0-.72,0h-.45c-.48,0-.85.33-1,1.11-.13.95.18,1.34,1.24,1.44.72.07,1.74.13,2.77.16a.79.79,0,1,1,0,1.57l-1.48-.06H12l-.25,0-.82,0c-.43,0-.67.2-.77.85s.25,1.2,1.26,1.29c.54.05,1.11.08,1.68.1h1a.79.79,0,1,1,0,1.57H12a1.06,1.06,0,0,0-1,.92c0,.65.36.94,1.6,1.06a20.32,20.32,0,0,0,4.91-.19.87.87,0,0,1,.28,0A1.14,1.14,0,0,0,18,25.2c.55-.25.87-.91.79-2.55a.77.77,0,0,1,.36-.68c1.12-.73,1.3-1.54.86-2.95a.78.78,0,0,1,.65-1c.22,0,.55-.47.7-1.09a1.52,1.52,0,0,0-.16-1.39.75.75,0,0,1,0-1.16,2.48,2.48,0,0,0,.55-1.52c0-1.06-.38-1.51-1.49-1.69A20.06,20.06,0,0,0,18,11a40.19,40.19,0,0,0-4.38.09Zm5.23,15.53a3.43,3.43,0,0,1-.57.2l-.23.06-.18,0c-3.05.77-10.3.75-15.66-.55A.84.84,0,0,1,1.61,26c-2-3.13-2.13-9.38-.43-13.4a.78.78,0,0,1,.19-.27c.18-.17.38-.34.62-.54l1.17-.95a7.41,7.41,0,0,0,1.79-2.1A9.68,9.68,0,0,0,6.46,4.32c0-.25,0-.56,0-.91s0-.9,0-1.35c0-.22,0-.38,0-.47a.74.74,0,0,1,.12-.45A2.41,2.41,0,0,1,7.11.57,2.54,2.54,0,0,1,9.79.24C12.31,1.3,14.36,4,13.53,7A18,18,0,0,0,13,9.51a1.77,1.77,0,0,0,.48,0A42,42,0,0,1,18,9.42a21.67,21.67,0,0,1,2.5.23,3,3,0,0,1,2.89,3.23A4.17,4.17,0,0,1,22.82,15a3.63,3.63,0,0,1-1,4.26A3.41,3.41,0,0,1,20.51,23c0,2-.6,3.09-1.75,3.61Z"/><path class="cls-1" d="M28.34,21.29a3.26,3.26,0,0,1,.54-.19l.22-.05.17,0c2.9-.74,9.8-.71,14.9.52a.8.8,0,0,1,.49.34c1.89,3,2,8.92.41,12.75a.74.74,0,0,1-.18.25c-.17.16-.36.32-.59.51,0,0-.87.7-1.11.9a7,7,0,0,0-1.71,2A9.21,9.21,0,0,0,40,42.51c0,.24,0,.53,0,.86s0,.85,0,1.29c0,.21,0,.36,0,.45a.72.72,0,0,1-.11.43,2.34,2.34,0,0,1-.5.54,2.41,2.41,0,0,1-2.55.32c-2.4-1-4.35-3.62-3.56-6.46a17.07,17.07,0,0,0,.52-2.36,1.73,1.73,0,0,0-.46,0,40.13,40.13,0,0,1-4.36.09,20.6,20.6,0,0,1-2.38-.22,2.87,2.87,0,0,1-2.75-3.08,4,4,0,0,1,.58-2,3.45,3.45,0,0,1,1-4.05,3.24,3.24,0,0,1,1.25-3.59c0-1.86.57-2.94,1.66-3.44Z"/></g></g></svg>