<svg xmlns="http://www.w3.org/2000/svg" viewBox="0 0 31.39 42.46"><defs><style>.cls-1{fill:none;stroke-width:1.69px;}.cls-1,.cls-3{stroke:#c01f46;stroke-miterlimit:10;}.cls-2{fill:#c01f46;}.cls-3{fill:#fff;}</style></defs><title>escrow</title><g id="Layer_2" data-name="Layer 2"><g id="Layer_1-2" data-name="Layer 1"><polygon class="cls-1" points="14.88 41.62 30.54 41.62 30.54 0.84 0.84 0.84 0.84 30.05 14.88 41.62 14.88 41.62"/><path class="cls-2" d="M10.55,5.7a4.59,4.59,0,0,1,4,2.46h9.32l2.19,2-2.85,2.46-1.31-1.34-1.32,1.34-1.32-1.34L18,12.63H14.6a4.59,4.59,0,0,1-4,2.46,4.69,4.69,0,0,1,0-9.39ZM8.79,9.27a1.12,1.12,0,1,0,1.1,1.12,1.11,1.11,0,0,0-1.1-1.12Z"/><path class="cls-2" d="M25,19.1H7.16c-.49,0-.89-.17-.89-.39s.4-.39.89-.39H25c.49,0,.89.18.89.39s-.4.39-.89.39Z"/><path class="cls-2" d="M25,22.23H7.16c-.49,0-.89-.18-.89-.39s.4-.39.89-.39H25c.49,0,.89.18.89.39s-.4.39-.89.39Z"/><path class="cls-2" d="M25,25.37H7.16c-.49,0-.89-.18-.89-.39s.4-.39.89-.39H25c.49,0,.89.18.89.39s-.4.39-.89.39Z"/><polyline class="cls-3" points="1.39 29.2 15.3 32.7 15.7 41.33"/></g></g></svg>