<svg xmlns="http://www.w3.org/2000/svg" xmlns:xlink="http://www.w3.org/1999/xlink" viewBox="0 0 26 26" version="1.1">
<g id="surface1">
<path style="color:ffffff; " d="M 16.53125 5.0625 C 16.246094 5.082031 15.964844 5.179688 15.65625 5.34375 C 14.273438 6.078125 9.257813 8.933594 9.25 8.9375 C 8.539063 9.355469 8.300781 10.289063 8.71875 11 C 9.113281 11.671875 9.964844 11.921875 10.65625 11.59375 C 10.726563 11.558594 13.160156 10.3125 14.28125 9.71875 C 15.476563 9.085938 16.21875 9.8125 16.21875 9.8125 C 16.21875 9.8125 20.535156 14.117188 21.75 15.28125 C 22.539063 16.039063 23.621094 15.667969 23.96875 15.625 C 24.316406 15.582031 26 15.25 26 15.25 L 26 7.375 C 26 7.375 23.421875 7.976563 21.90625 8.28125 C 21.441406 8.375 20.875 8.0625 20.875 8.0625 C 20.875 8.0625 19.617188 6.988281 18.21875 5.8125 C 17.511719 5.214844 17.007813 5.027344 16.53125 5.0625 Z M 9.78125 5.15625 C 8.1875 5.15625 4.875 7.34375 4.875 7.34375 C 4.875 7.34375 3.9375 7.949219 2.59375 7.40625 L 0 6.5 L 0 15.5 C 0 15.5 0.742188 15.730469 1.40625 16 C 1.558594 15.574219 1.789063 15.167969 2.125 14.84375 C 3.226563 13.792969 5.058594 13.78125 6.0625 14.8125 C 6.363281 15.125 6.578125 15.527344 6.6875 15.9375 C 7.09375 16.0625 7.453125 16.257813 7.75 16.5625 C 8.054688 16.875 8.265625 17.246094 8.375 17.65625 C 8.78125 17.78125 9.140625 18.007813 9.4375 18.3125 C 9.769531 18.65625 9.988281 19.082031 10.09375 19.53125 C 10.515625 19.65625 10.910156 19.871094 11.21875 20.1875 C 11.820313 20.804688 12.035156 21.65625 11.90625 22.46875 C 11.90625 22.46875 12.269531 22.894531 12.5 23.125 C 12.945313 23.570313 13.679688 23.570313 14.125 23.125 C 14.570313 22.679688 14.570313 21.945313 14.125 21.5 C 14.109375 21.484375 12.476563 19.835938 12.625 19.6875 C 12.773438 19.539063 14.839844 21.683594 14.84375 21.6875 C 15.285156 22.128906 15.996094 22.128906 16.4375 21.6875 C 16.867188 21.253906 16.878906 20.570313 16.46875 20.125 C 16.460938 20.117188 14.601563 18.117188 14.71875 18 C 14.851563 17.867188 17.089844 20.1875 17.09375 20.1875 C 17.542969 20.601563 18.25 20.59375 18.6875 20.15625 C 19.125 19.71875 19.105469 19.011719 18.6875 18.5625 C 18.683594 18.558594 16.851563 16.585938 16.96875 16.46875 C 17.085938 16.351563 18.996094 18.246094 19 18.25 C 19.445313 18.695313 20.148438 18.695313 20.59375 18.25 C 21.039063 17.804688 21.039063 17.070313 20.59375 16.625 C 20.585938 16.617188 18.101563 14.167969 15.59375 11.65625 C 15.59375 11.65625 14.867188 10.875 13.875 11.3125 C 13.179688 11.617188 12.269531 12.058594 11.59375 12.375 C 10.851563 12.765625 10.195313 12.875 10.0625 12.875 C 8.625 12.875 7.46875 11.714844 7.46875 10.28125 C 7.46875 9.351563 7.953125 8.523438 8.6875 8.0625 C 9.722656 7.34375 12.125 6.09375 12.125 6.09375 C 12.125 6.09375 11.375 5.15625 9.78125 5.15625 Z M 4.125 15.25 C 3.726563 15.261719 3.320313 15.410156 3 15.71875 C 2.359375 16.335938 1.925781 17.472656 2.5 18.125 C 3.070313 18.777344 3.746094 18.363281 4.25 18.25 C 4.109375 18.746094 3.671875 19.226563 4.1875 19.875 C 4.699219 20.527344 5.433594 20.113281 5.9375 20 C 5.796875 20.496094 5.378906 21.019531 5.875 21.625 C 6.371094 22.230469 7.210938 21.886719 7.75 21.71875 C 7.542969 22.253906 7.085938 22.851563 7.65625 23.5 C 8.226563 24.148438 9.542969 23.835938 10.1875 23.21875 C 10.828125 22.605469 10.878906 21.617188 10.3125 21.03125 C 9.921875 20.632813 9.347656 20.550781 8.8125 20.71875 C 9.023438 20.183594 8.964844 19.566406 8.5625 19.15625 C 8.203125 18.785156 7.660156 18.699219 7.15625 18.8125 C 7.296875 18.316406 7.238281 17.78125 6.875 17.40625 C 6.515625 17.039063 5.972656 16.949219 5.46875 17.0625 C 5.609375 16.566406 5.546875 16.03125 5.1875 15.65625 C 4.902344 15.363281 4.523438 15.238281 4.125 15.25 Z "></path>
</g>
</svg>
