<svg xmlns="http://www.w3.org/2000/svg" viewBox="0 0 46.42 41.7"><defs><style>.cls-1{fill:#c01f46;}</style></defs><title>milestone-payments</title><g id="Layer_2" data-name="Layer 2"><g id="Layer_1-2" data-name="Layer 1"><polygon class="cls-1" points="44.21 10.01 29.47 10.01 29.47 24.75 14.74 24.75 14.74 39.49 0 39.49 0 41.7 14.74 41.7 16.95 41.7 16.95 39.49 16.95 26.96 29.47 26.96 31.68 26.96 31.68 24.75 31.68 12.22 44.21 12.22 46.42 12.22 46.42 10.01 44.21 10.01 44.21 10.01"/><path class="cls-1" d="M8,29.67H7.29v.65a2.54,2.54,0,0,0-.75.16,2.27,2.27,0,0,0-.68.39,2,2,0,0,0-.49.61,1.76,1.76,0,0,0-.19.83,1.63,1.63,0,0,0,.63,1.35,2.43,2.43,0,0,0,.66.37q.37.14.78.26v1.65a1.21,1.21,0,0,1-.34-.05,2.31,2.31,0,0,1-.36-.14,2.44,2.44,0,0,1-.35-.2,1.61,1.61,0,0,1-.29-.26l-.5.53-.5.51A3.13,3.13,0,0,0,6,37a4.24,4.24,0,0,0,1.24.23v.69h.7V37.2a2.74,2.74,0,0,0,.81-.14,2.19,2.19,0,0,0,.7-.39A1.87,1.87,0,0,0,9.94,36a2.06,2.06,0,0,0,.18-.9,1.67,1.67,0,0,0-.2-.85,1.94,1.94,0,0,0-.51-.58,2.72,2.72,0,0,0-.69-.38L8,33.07V31.55a1.89,1.89,0,0,1,.63.14,1.69,1.69,0,0,1,.57.37l.92-1a2.93,2.93,0,0,0-1-.53A4.42,4.42,0,0,0,8,30.31v-.64Zm-.69,3.24a1.12,1.12,0,0,1-.48-.24.59.59,0,0,1-.18-.46.58.58,0,0,1,.2-.48.87.87,0,0,1,.46-.19v1.37Zm.65,1.55a1.4,1.4,0,0,1,.5.26.62.62,0,0,1,.19.5.68.68,0,0,1-.69.74V34.46Z"/><path class="cls-1" d="M22.88,14.92h-.69v.65a2.6,2.6,0,0,0-.75.16,2.27,2.27,0,0,0-.68.39,2,2,0,0,0-.49.62,1.77,1.77,0,0,0-.19.83,1.62,1.62,0,0,0,.62,1.35,2.46,2.46,0,0,0,.66.37c.25.09.51.18.78.26v1.66a1.24,1.24,0,0,1-.34-.05,2.52,2.52,0,0,1-.36-.14,2.49,2.49,0,0,1-.35-.2,1.58,1.58,0,0,1-.29-.26l-.5.53-.5.52a3.14,3.14,0,0,0,1.1.64,4.24,4.24,0,0,0,1.24.23v.69h.7v-.69a2.74,2.74,0,0,0,.81-.14,2.17,2.17,0,0,0,.7-.39,1.87,1.87,0,0,0,.49-.64,2.07,2.07,0,0,0,.18-.9,1.67,1.67,0,0,0-.2-.85,2,2,0,0,0-.51-.58,2.72,2.72,0,0,0-.69-.38l-.75-.26V16.8a1.86,1.86,0,0,1,.63.14,1.69,1.69,0,0,1,.57.37l.92-1a2.94,2.94,0,0,0-1-.53,4.38,4.38,0,0,0-1.11-.19v-.64Zm-.69,3.24a1.12,1.12,0,0,1-.48-.24.59.59,0,0,1-.18-.46.58.58,0,0,1,.2-.48.86.86,0,0,1,.46-.19v1.37Zm.65,1.55a1.39,1.39,0,0,1,.5.26.62.62,0,0,1,.19.5.73.73,0,0,1-.18.52.72.72,0,0,1-.51.21V19.71Z"/><path class="cls-1" d="M38,0h-.69V.65a2.6,2.6,0,0,0-.75.16,2.29,2.29,0,0,0-.68.39,2,2,0,0,0-.49.62,1.77,1.77,0,0,0-.19.83,1.72,1.72,0,0,0,.17.8,1.73,1.73,0,0,0,.45.55,2.37,2.37,0,0,0,.66.37q.37.14.78.26V6.27a1.22,1.22,0,0,1-.34-.05,2.55,2.55,0,0,1-.36-.14,2.43,2.43,0,0,1-.35-.2,1.51,1.51,0,0,1-.29-.26l-.5.53-.5.52A3.14,3.14,0,0,0,36,7.3a4.24,4.24,0,0,0,1.24.23v.69H38V7.53a2.71,2.71,0,0,0,.81-.14,2.16,2.16,0,0,0,.7-.39A1.87,1.87,0,0,0,40,6.36a2.07,2.07,0,0,0,.18-.9,1.66,1.66,0,0,0-.2-.85A1.94,1.94,0,0,0,39.44,4a2.71,2.71,0,0,0-.69-.38L38,3.4V1.88a1.84,1.84,0,0,1,.63.14,1.67,1.67,0,0,1,.57.37l.92-1a2.94,2.94,0,0,0-1-.53A4.34,4.34,0,0,0,38,.64V0Zm-.69,3.23A1.11,1.11,0,0,1,36.83,3a.59.59,0,0,1-.18-.46.58.58,0,0,1,.2-.48.86.86,0,0,1,.46-.19V3.23ZM38,4.79a1.41,1.41,0,0,1,.5.26.62.62,0,0,1,.19.5.68.68,0,0,1-.69.74V4.79Z"/></g></g></svg>