<svg xmlns="http://www.w3.org/2000/svg" viewBox="0 0 36.31 36.23"><defs><style>.cls-1{fill:#c01f46;}</style></defs><title>overseas-deals</title><g id="Layer_2" data-name="Layer 2"><g id="Layer_1-2" data-name="Layer 1"><path class="cls-1" d="M1.22,18.3A35.06,35.06,0,0,0,8,23.93q0-1,0-1.9a37.76,37.76,0,0,1,.8-6.64,38,38,0,0,0-7.57,2.9Z"/><path class="cls-1" d="M9.47,24.87a38.79,38.79,0,0,0,5.65,2.69l.44.16a2.3,2.3,0,0,1,2.14-1.2l.5,0a24.26,24.26,0,0,0,3.95-10.63,2.31,2.31,0,0,1-1.36-1.74,37.77,37.77,0,0,0-10.4.81,36,36,0,0,0-.93,9.89Z"/><path class="cls-1" d="M9.14,13.83a40,40,0,0,1,1.41-4.44l.31-.75a2.3,2.3,0,0,1-.77-1.71,38.48,38.48,0,0,0-5-1.48A18.07,18.07,0,0,0,0,16.92l.21.24a39.19,39.19,0,0,1,8.9-3.33Z"/><path class="cls-1" d="M12.28,9.26h-.09l-.26.66q-.68,1.77-1.18,3.55a39.11,39.11,0,0,1,9.81-.71A37,37,0,0,0,14,8.63a2.31,2.31,0,0,1-1.75.63Z"/><path class="cls-1" d="M8.07,25.7a37.76,37.76,0,0,1-4.62-3.27A36,36,0,0,1,0,19.13a18.17,18.17,0,0,0,9.84,15.1l-.12-.37A32.9,32.9,0,0,1,8.07,25.7Z"/><path class="cls-1" d="M25.15,14.81,25,15a32.81,32.81,0,0,1,4.74,6.21,29.14,29.14,0,0,1,2.35,5.14,17.16,17.16,0,0,1,.69,2.43,18,18,0,0,0,3.44-9.62,30.86,30.86,0,0,0-11.12-4.33Z"/><path class="cls-1" d="M19.31,30.31a2.31,2.31,0,0,1-1.85.81l-.76-.18a33.42,33.42,0,0,1-4.57,4.28,18.22,18.22,0,0,0,18.43-3.87,36.23,36.23,0,0,1-4.21,0,38.36,38.36,0,0,1-7-1Z"/><path class="cls-1" d="M23.17,8.56a22.65,22.65,0,0,1,.47,3.14,2.3,2.3,0,0,1,1.63,1.67,34.28,34.28,0,0,1,5.31,1.41,31.15,31.15,0,0,1,5.74,2.74A18.14,18.14,0,0,0,19.18,0a23.37,23.37,0,0,1,1.39,2.06,22.66,22.66,0,0,1,2.6,6.5Z"/><path class="cls-1" d="M12.51,4.71h.18A38.39,38.39,0,0,1,15.6.13,18.11,18.11,0,0,0,6.39,4.3,40.08,40.08,0,0,1,10.61,5.6a2.3,2.3,0,0,1,1.9-.89Z"/><path class="cls-1" d="M14.7,7.08a2.12,2.12,0,0,1,0,.22A38.17,38.17,0,0,1,21.81,12l.37-.21a21.18,21.18,0,0,0-2.92-9A22.48,22.48,0,0,0,17.41.09,36.91,36.91,0,0,0,14,5.33a2.3,2.3,0,0,1,.72,1.75Z"/><path class="cls-1" d="M24,16l-.41.16A24,24,0,0,1,23,19.44a25.92,25.92,0,0,1-1.94,5.14,28.33,28.33,0,0,1-1.64,2.85,2.3,2.3,0,0,1,.46,1.52h0a36.87,36.87,0,0,0,6.55.93,34.09,34.09,0,0,0,5.11,0,26.67,26.67,0,0,0-3.07-7.88A31.58,31.58,0,0,0,24,16Z"/><path class="cls-1" d="M15.62,30a2.3,2.3,0,0,1-.32-.87l-.66-.26a40.21,40.21,0,0,1-5-2.3A31.22,31.22,0,0,0,11.29,34a32.14,32.14,0,0,0,4.33-4Z"/></g></g></svg>