<svg xmlns="http://www.w3.org/2000/svg" viewBox="0 0 190.9 96.63"><defs><style>.cls-1{fill:#c00043;}</style></defs><title>Asset 3</title><g id="Layer_2" data-name="Layer 2"><g id="Layer_1-2" data-name="Layer 1"><path class="cls-1" d="M43.22,84.22a7,7,0,1,1-7-6.9A6.89,6.89,0,0,1,43.22,84.22Zm19.5-71.81a7,7,0,1,1-7-6.9A6.89,6.89,0,0,1,62.72,12.41Zm80.43,35.9a7,7,0,1,1-7-6.89A6.89,6.89,0,0,1,143.15,48.32Zm47.73,35.6a2.78,2.78,0,0,0-2.83-2.46H48.45a12.55,12.55,0,0,0-24.42,0H2.83A2.76,2.76,0,1,0,2.75,87H24a12.55,12.55,0,0,0,24.42,0h139.6a2.77,2.77,0,0,0,2.85-2.7A2.48,2.48,0,0,0,190.88,83.92Zm0-35.9a2.78,2.78,0,0,0-2.83-2.46H148.37a12.55,12.55,0,0,0-24.42,0H2.83a2.76,2.76,0,1,0-.08,5.52H124a12.55,12.55,0,0,0,24.42,0h39.68a2.77,2.77,0,0,0,2.85-2.7A2.47,2.47,0,0,0,190.88,48Zm0-35.91a2.78,2.78,0,0,0-2.83-2.46H67.95a12.55,12.55,0,0,0-24.42,0H2.83a2.76,2.76,0,1,0-.08,5.52H43.52a12.55,12.55,0,0,0,24.42,0H188.05a2.77,2.77,0,0,0,2.85-2.7A2.49,2.49,0,0,0,190.88,12.11Z"/></g></g></svg>