<svg xmlns="http://www.w3.org/2000/svg" viewBox="0 0 171.06 171.06"><defs><style>.cls-1{fill:#c00043;}</style></defs><title>Asset 5</title><g id="Layer_2" data-name="Layer 2"><g id="Layer_1-2" data-name="Layer 1"><path class="cls-1" d="M164.8,53.34A85.66,85.66,0,0,0,53.34,6.26,85.67,85.67,0,0,0,6.26,117.72,85.67,85.67,0,0,0,117.72,164.8,85.66,85.66,0,0,0,164.8,53.34ZM117.38,80.59l-10,1.55A22.14,22.14,0,0,1,105.9,94L100.83,89a15.62,15.62,0,0,0,.39-3.45,15,15,0,0,0-.19-2.41l-5.24.81L91.65,79.8l5.33-5a15.65,15.65,0,0,0-14.9-4.59L77,65.15a22.07,22.07,0,0,1,24.64,5.3L109,63.54l.07,0,0,0a73.5,73.5,0,0,1,19,10.2,76.65,76.65,0,0,1,12.69,11.77A76.94,76.94,0,0,1,128,97.33a75.62,75.62,0,0,1-11.71,7.12l-2.85-2.85a32.11,32.11,0,0,0,3.93-21Zm16.38,24a79.18,79.18,0,0,0,16.71-16.44,4.63,4.63,0,0,0,0-5.29,79,79,0,0,0-16.68-16.42,83.48,83.48,0,0,0-20.26-11.14A79.57,79.57,0,0,0,64.82,53L43.17,31.32a68.8,68.8,0,0,1,91,5.57,68.83,68.83,0,0,1,5.57,91l-5.54-5.54-11-11A85.68,85.68,0,0,0,133.76,104.62ZM85.53,154.29A68.78,68.78,0,0,1,31.32,43.17L47.87,59.72a85.42,85.42,0,0,0-10.64,6.77A79,79,0,0,0,20.57,82.91,4.63,4.63,0,0,0,20.5,88a78.5,78.5,0,0,0,16.73,16.53A83.44,83.44,0,0,0,57.5,115.72a79.18,79.18,0,0,0,28,5.1h0a79.48,79.48,0,0,0,20.7-2.74l21.65,21.65a68.62,68.62,0,0,1-42.35,14.55ZM57.6,69.45A32.16,32.16,0,0,0,62,107.51,73.51,73.51,0,0,1,43.05,97.34,76.86,76.86,0,0,1,30.31,85.53,77.12,77.12,0,0,1,43.06,73.71a76,76,0,0,1,11.69-7.11Zm27.93,31.77a15.72,15.72,0,0,0,3.45-.39L94,105.9A22.08,22.08,0,0,1,65.15,77l5.07,5.07a15.45,15.45,0,0,0-.39,3.45A15.71,15.71,0,0,0,85.53,101.22Z"/></g></g></svg>