<svg xmlns="http://www.w3.org/2000/svg" viewBox="0 0 186.62 137.35"><defs><style>.cls-1{fill:#c00043;}</style></defs><title>Asset 2</title><g id="Layer_2" data-name="Layer 2"><g id="Layer_1-2" data-name="Layer 1"><path class="cls-1" d="M118.06,118.07l-13.48-13.5,30.19-30.25a8,8,0,0,0,0-11.3L104.59,32.78l13.48-13.5,49.31,49.39Zm66.22-55L123.7,2.34a8,8,0,0,0-11.28,0L51.84,63a8,8,0,0,0,0,11.3L78.47,101l11.28-11.3-21-21,24.56-24.6,24.56,24.6L68.56,118.07,19.25,68.68,68.56,19.28,78.63,29.38,89.91,18.08,74.2,2.34a8,8,0,0,0-11.28,0L2.34,63a8,8,0,0,0,0,11.3L62.92,135a8,8,0,0,0,11.27,0l19.11-19.14L112.42,135a8,8,0,0,0,11.28,0l60.59-60.69a8,8,0,0,0,0-11.3"/></g></g></svg>