<svg xmlns="http://www.w3.org/2000/svg" viewBox="0 0 164 162.55"><defs><style>.cls-1{fill:#c00043;}</style></defs><title>Asset 4</title><g id="Layer_2" data-name="Layer 2"><g id="Layer_1-2" data-name="Layer 1"><path class="cls-1" d="M0,18.07v98.76c0,14.29,34.58,18.07,52.45,18.07a52,52,0,0,0,5.48-.19l2.07-.18v10c0,14.29,34.13,18.07,52,18.07s52-3.78,52-18.07V105c0-14.29-33.47-18.07-51.33-18.07-1.72,0-4.49,0-6.38.19l-1.28.18V18.07C105,3.78,70.37,0,52.5,0S0,3.78,0,18.07ZM69,135.43l2.42,1c11.11,4.71,28,6.38,40.5,6.38s29.61-1.68,40.71-6.38l2.37-1v9.23l0,.45c-2.78,3.61-18.16,9-42.67,9s-40.33-5.34-43.11-9l-.24-.45Zm0-19.75,2.42,1c11.11,4.71,28,6.38,40.5,6.38s29.61-1.68,40.71-6.38l2.37-1v9.23l0,.45c-2.78,3.61-18.16,9-42.67,9S72,129,69.24,125.36l-.24-.45ZM68.55,105,70,103.72c3.82-3.34,18.2-8.32,42.19-8.32s38.37,5,42.19,8.32l1.44,1.26-1.44,1.26c-3.82,3.34-18.21,8.31-42.19,8.31s-38.37-5-42.19-8.31ZM10,107.78l2.29,1c11.12,4.71,28,6.38,40.43,6.38a52.85,52.85,0,0,0,5.51-.19l1.76-.19v10.85s-5.64.79-6.66.79c-24.51,0-40.33-5.34-43.11-8.95L10,117ZM10,88l2.24,1C23.35,93.72,40.15,95.4,52.6,95.4a85.23,85.23,0,0,0,9.7-.38l5-.57-3.8,3.42c-2.22,2.23-3.48,4.42-3.48,6.91,0,0-5.64,1.88-6.66,1.88-24.5,0-40.33-5.34-43.1-9L10,97.25Zm0-19.75,2.29,1c11.11,4.71,28,6.39,40.43,6.39S81.92,74,93,69.26l2-1V77.5l.4.45c-2.78,3.61-18,9-42.49,9S12.79,81.57,10,78l0-.45Zm0-19.75,2.29,1c11.12,4.71,28,6.38,40.43,6.38S81.91,54.22,93,49.51l2-1v9.22l.4.45c-2.78,3.61-18,9-42.49,9S12.79,61.81,10,58.2l0-.45Zm0-19.75,2.29,1c11.11,4.7,28,6.38,40.43,6.38S81.92,34.46,93,29.76l2-1V38l.4.45c-2.78,3.61-18,9-42.49,9s-40.12-5.34-42.89-9L10,38Zm-.71-10.7,1.44-1.26c3.82-3.34,18.2-8.32,42.19-8.32s38.37,5,42.19,8.32l1.44,1.26-1.44,1.26c-3.82,3.34-18.21,8.32-42.19,8.32s-38.37-5-42.19-8.32Z"/></g></g></svg>