<svg xmlns="http://www.w3.org/2000/svg" viewBox="0 0 202 208.19"><defs><style>.cls-1{fill:#c00043;}</style></defs><title>Asset 1</title><g id="Layer_2" data-name="Layer 2"><g id="Layer_1-2" data-name="Layer 1"><path class="cls-1" d="M105,88.19v-36C105,23.5,81.23,0,52.5,0S0,23.5,0,52.23v36H19v-36a32.5,32.5,0,1,1,65,0v36H68v120H202v-120Zm-4.66,65.45L113.59,134l8.3,5.73-9.26,13.89,9.51,14.18-8.65,5.31Zm19.25,28,25.17-63.07,9.83,3.4-25.07,63Zm40.72-8.34L152,167.53l9.26-13.89-9.51-14.19,8.65-5.3,13.15,19.49Z"/></g></g></svg>