<svg xmlns="http://www.w3.org/2000/svg" viewBox="0 0 213.82 132.57"><defs><style>.cls-1{fill:#c00043;}</style></defs><title>Asset 6</title><g id="Layer_2" data-name="Layer 2"><g id="Layer_1-2" data-name="Layer 1"><path class="cls-1" d="M132.57,18.63,102.51,49.18H87.67v15H77v-15H42.76V64L34.21,76.46V72.7H0V109H34.21v-3.89l8.55,12.31v15.1H77V98.36H42.76v13.08L34.21,99.12V82.53l8.55-12.46V83.39H77v-15H87.67v15h34.21v-15h10.69v15h34.21v-15h10.69v15h36.35V49.18H177.47v15H166.78v-15H132.57v15H121.88v-15H107.43l25.14-25.63V34.21h34.21V0H132.57ZM6.41,100.49V81.25H27.8v19.24Z"/></g></g></svg>